<?xml version="1.0" encoding="utf-8"?>
<svg xmlns="http://www.w3.org/2000/svg" viewBox="-0.01 1.3997 100.85 73.5272" width="100.85px" height="73.5272px"><defs><style>.cls-1{fill:#fff}</style></defs><path d="M 100.84 22.13 C 79.84 23.49 65.71 37.74 65.71 37.74 C 62.934 35.039 60.005 32.498 56.94 30.13 C 60.321 22.707 62.32 14.73 62.84 6.59 C 62.84 6.59 77.5 9.5 84.41 23.47 C 85.883 23.117 87.42 22.82 89.02 22.58 C 77.525 -1.999 44.268 -6.065 27.19 15.02 C 11.31 10.76 -0.01 13.23 -0.01 13.23 C 49.1 23.23 65.55 64.23 65.55 64.23 C 72.55 47.74 80.49 37.54 87.09 31.32 C 87.537 33.471 87.805 35.655 87.89 37.85 C 87.89 37.85 88.54 49.48 80.3 58.6 C 74.237 65.881 65.234 70.066 55.76 70.01 C 45.781 70.036 36.359 65.415 30.27 57.51 C 30.27 57.51 39.27 53.85 47.82 44.1 C 46.613 42.96 45.403 41.853 44.19 40.78 C 39.576 46.049 33.982 50.373 27.72 53.51 C 23.162 45.304 22.431 35.512 25.72 26.72 C 24.387 25.833 23.053 24.99 21.72 24.19 C 10.972 50.367 32.593 78.363 60.637 74.582 C 82.901 71.58 97.289 49.486 91.03 27.91 C 96.84 23.38 100.84 22.13 100.84 22.13 M 31.98 16.43 C 36.69 11.21 44.98 5.21 58.09 5.87 C 57.706 13.204 55.942 20.4 52.89 27.08 C 46.458 22.585 39.426 19.017 32 16.48 L 31.98 16.43 Z" class="cls-1" id="object-0" transform="matrix(1, 0, 0, 1, 0, -3.552713678800501e-15)"/></svg>