<svg xmlns="http://www.w3.org/2000/svg" id="Lager_1" data-name="Lager 1" viewBox="0 0 380.19 74.92"><defs><style>.cls-1{fill:#fff}</style></defs><path d="M105.09 22.36h9.35l4.64 24.77h.13l4.84-24.79h9l-9.09 33h-10.12ZM156.79 9.74v7.06h-7.26V9.74zm-11.58 0v7.06h-7.26V9.74zm-2.49 35.39c0 2.35.39 5.23 3.4 5.23 5.43 0 4.58-7.33 4.58-10.92-4.58.19-7.98-.2-7.98 5.69m17 4.12c0 2 .26 4.12.46 6.15h-8.57l-.39-4.38h-.13a9.15 9.15 0 0 1-8.63 5c-6.41 0-8.76-4.78-8.76-10.53 0-10.92 8.44-11.38 17-11.25v-2.55c0-2.81-.39-4.84-3.73-4.84s-3.47 2.42-3.47 5h-9c0-4 1.24-6.54 3.4-8s5.1-2.16 8.63-2.16c11.71 0 13.21 5 13.21 11.05v16.48ZM171.97 44.8a9.45 9.45 0 0 0 .46 4c.52 1 1.5 1.57 3.34 1.57a3.22 3.22 0 0 0 3.4-3.4c0-7-16.22-5.43-16.22-16 0-7.13 7.06-9.29 13-9.29 6.28 0 12 3 11.45 10.14h-9c0-2.29-.26-3.66-.92-4.25a3.1 3.1 0 0 0-2.35-.72c-2 0-3.14 1.31-3.14 3.53 0 5.23 16.22 5 16.22 15.57 0 5.76-4.71 10.07-12.36 10.07-8 0-13.41-2-12.89-11.25h9ZM189.11 22.36h3.73v-5.23l9.22-4.12v9.35h4.78v5.69h-4.78v17.66c0 2.49-.07 4.12 2.94 4.12a6.3 6.3 0 0 0 1.63-.13v5.69a38 38 0 0 1-4.78.33c-8 0-9-5.3-9-7.33V28.05h-3.73v-5.69Z" class="cls-1"/><path d="M206.71 22.36h3.73v-5.23l9.22-4.12v9.35h4.78v5.69h-4.78v17.66c0 2.49-.06 4.12 2.94 4.12a6.3 6.3 0 0 0 1.64-.13v5.69a38 38 0 0 1-4.78.33c-8 0-9-5.3-9-7.33V28.05h-3.73v-5.69ZM236.77 22.36v4.25h.13c1.7-3.79 4.84-4.91 8.57-4.91v8.24c-8.11-.52-8.24 4.19-8.24 7.46v18h-9.22v-33h8.77ZM271.84 49.25c0 2 .26 4.12.46 6.15h-8.57l-.39-4.38h-.13a9.15 9.15 0 0 1-8.63 5c-6.41 0-8.76-4.78-8.76-10.53 0-10.92 8.44-11.38 17-11.25v-2.55c0-2.81-.39-4.84-3.73-4.84s-3.47 2.42-3.47 5h-9c0-4 1.24-6.54 3.4-8s5.1-2.16 8.63-2.16c11.71 0 13.21 5 13.21 11.05v16.48Zm-17-4.12c0 2.35.39 5.23 3.4 5.23 5.43 0 4.58-7.33 4.58-10.92-4.6.19-7.98-.2-7.98 5.69M291.24 17.02c-3.93 0-4.37.43-4.37 2.95v2.36h4.37v6h-4.4v27.08h-9.24V28.32h-4.16v-6h4.16c-.06-9.49-.76-12.9 10.49-12.9 1.11 0 2 .07 3.12.14v7.45ZM304.24 55.4h-9.22v-33h9.22zm0-45.63v7.26h-9.22V9.77zM309.05 55.4V9.72h9.28V36.3h.13l8.31-13.93h9.62l-9.42 14.76 10.4 18.32h-10.4l-8.57-18h-.13v18h-9.22ZM100.84 22.13c-21 1.36-35.13 15.61-35.13 15.61a102 102 0 0 0-8.77-7.61 67.1 67.1 0 0 0 5.9-23.54S77.5 9.5 84.41 23.47q2.21-.53 4.61-.89a36.74 36.74 0 0 0-61.83-7.56c-15.88-4.26-27.2-1.79-27.2-1.79 49.11 10 65.56 51 65.56 51 7-16.49 14.94-26.69 21.54-32.91a39.6 39.6 0 0 1 .8 6.53s.65 11.63-7.59 20.75a31.69 31.69 0 0 1-24.54 11.41 32.07 32.07 0 0 1-25.49-12.5s9-3.66 17.55-13.41q-1.81-1.71-3.63-3.32a54.1 54.1 0 0 1-16.47 12.73 32.05 32.05 0 0 1-2-26.79q-2-1.33-4-2.53a36.76 36.76 0 1 0 69.31 3.72c5.81-4.53 9.81-5.78 9.81-5.78m-68.86-5.7c4.71-5.22 13-11.22 26.11-10.56a58.4 58.4 0 0 1-5.2 21.21A83.7 83.7 0 0 0 32 16.48Z" class="cls-1"/><path d="M.19 0h380v74.92H.19z" style="fill:none"/></svg>